<?xml version="1.0" standalone="no"?>
<!DOCTYPE svg PUBLIC "-//W3C//DTD SVG 20010904//EN"
 "http://www.w3.org/TR/2001/REC-SVG-20010904/DTD/svg10.dtd">
<svg version="1.0" xmlns="http://www.w3.org/2000/svg"
 width="720.000000pt" height="1480.000000pt" viewBox="0 0 720.000000 1480.000000"
 preserveAspectRatio="xMidYMid meet">

<g transform="translate(0.000000,1480.000000) scale(0.100000,-0.100000)"
fill="#000000" stroke="none">
<path d="M3555 8573 c-40 -21 -573 -322 -1035 -583 -206 -117 -429 -243 -495
-280 -222 -124 -235 -135 -235 -191 0 -52 65 -98 113 -80 13 5 208 114 433
241 225 128 501 284 614 348 113 63 303 171 423 238 119 68 224 124 232 124 9
0 66 -29 128 -64 107 -60 223 -126 562 -318 83 -47 308 -174 500 -283 193
-109 386 -219 429 -243 86 -49 120 -55 160 -29 44 29 47 97 6 135 -10 9 -74
49 -142 87 -68 38 -188 105 -268 150 -80 45 -246 139 -370 209 -228 130 -263
150 -724 410 -143 80 -269 146 -280 146 -12 -1 -34 -8 -51 -17z"/>
<path d="M3580 7872 c-40 -14 -597 -337 -612 -354 -17 -19 -18 -56 -18 -472 0
-248 -3 -461 -6 -473 l-6 -23 -270 0 c-156 0 -277 -4 -288 -10 -36 -19 -40
-62 -40 -434 0 -271 3 -367 13 -386 23 -47 63 -51 404 -48 310 3 313 3 335 26
23 22 23 26 28 345 l5 322 542 5 543 5 27 28 28 27 3 515 c2 423 0 520 -11
548 -13 29 -50 53 -314 204 -296 168 -334 186 -363 175z m271 -328 l239 -136
-2 -427 -3 -426 -480 0 -480 0 -2 420 c-2 231 1 425 5 431 4 7 75 50 157 96
83 47 186 106 230 131 44 26 84 47 88 47 5 0 116 -61 248 -136z m-910 -1180
c5 -3 9 -115 9 -248 0 -195 -3 -246 -14 -255 -9 -8 -74 -11 -212 -9 l-199 3
-3 254 c-2 197 1 257 10 264 13 9 394 1 409 -9z"/>
<path d="M3560 7344 c-22 -10 -36 -11 -38 -4 -2 6 -42 10 -103 10 l-99 0 0
-355 0 -355 100 0 100 0 0 91 c0 90 0 91 23 84 96 -29 151 -29 223 1 53 22
109 79 135 137 33 74 34 193 0 257 -51 100 -132 150 -241 150 -36 -1 -81 -8
-100 -16z m120 -265 l0 -241 -54 4 c-30 2 -66 12 -80 22 l-26 17 2 202 3 202
35 17 c19 10 54 18 78 18 l42 0 0 -241z"/>
<path d="M4733 7540 c-18 -11 -34 -21 -35 -22 -2 -2 -5 -376 -8 -833 l-5 -830
-658 -5 -659 -5 -19 -24 c-30 -36 -22 -98 14 -125 28 -21 33 -21 731 -21 757
0 741 -1 765 52 14 31 16 1739 1 1777 -9 24 -56 56 -82 56 -7 0 -28 -9 -45
-20z"/>
<path d="M2373 7526 l-28 -24 0 -402 0 -402 24 -19 c30 -25 92 -25 122 0 l24
19 3 384 c1 210 0 393 -3 405 -15 61 -91 82 -142 39z"/>
<path d="M3977 5593 c-4 -3 -7 -48 -7 -100 0 -76 3 -93 15 -93 12 0 15 18 15
100 0 92 -5 112 -23 93z"/>
<path d="M3914 5579 c-10 -17 13 -36 27 -22 12 12 4 33 -11 33 -5 0 -12 -5
-16 -11z"/>
<path d="M3597 5551 c-4 -15 -12 -18 -41 -15 l-36 4 0 -70 c0 -56 3 -70 15
-70 11 0 15 12 15 45 0 34 5 47 19 55 29 15 31 13 31 -31 0 -22 5 -49 10 -60
14 -25 40 -25 40 1 0 11 -4 20 -10 20 -14 0 -12 56 3 81 10 17 10 23 0 26 -7
3 -13 11 -13 19 0 21 -27 17 -33 -5z"/>
<path d="M4140 5555 c0 -8 -4 -15 -10 -15 -5 0 -10 -7 -10 -15 0 -8 5 -15 10
-15 6 0 10 -22 10 -49 0 -49 18 -79 40 -66 13 8 13 35 0 35 -14 0 -12 56 3 81
10 17 10 23 0 26 -7 3 -13 11 -13 19 0 8 -7 14 -15 14 -8 0 -15 -7 -15 -15z"/>
<path d="M2995 5508 c-3 -18 -5 -62 -3 -98 2 -50 7 -65 18 -65 9 0 16 11 18
28 2 15 7 25 12 22 5 -3 19 -1 30 5 16 9 20 21 20 63 0 61 -12 77 -57 77 -28
0 -33 -4 -38 -32z m65 -43 c0 -24 -5 -35 -15 -35 -10 0 -15 11 -15 35 0 24 5
35 15 35 10 0 15 -11 15 -35z"/>
<path d="M3110 5470 c0 -56 3 -70 15 -70 11 0 15 12 15 45 0 35 5 47 21 55 28
16 19 34 -19 37 l-32 3 0 -70z"/>
<path d="M3196 5524 c-23 -22 -21 -96 2 -117 24 -22 38 -21 62 3 26 26 27 90
2 113 -23 21 -46 22 -66 1z m49 -59 c0 -43 -29 -40 -33 3 -3 28 0 33 15 30 13
-2 18 -12 18 -33z"/>
<path d="M3294 5527 c-3 -8 -4 -52 -2 -98 2 -67 6 -84 18 -84 9 0 16 11 18 27
2 17 8 25 16 22 8 -3 21 2 30 11 19 20 22 105 4 123 -16 16 -77 15 -84 -1z
m66 -62 c0 -24 -5 -35 -15 -35 -10 0 -15 11 -15 35 0 24 5 35 15 35 10 0 15
-11 15 -35z"/>
<path d="M3414 5505 c-16 -40 -11 -76 17 -101 16 -14 23 -15 45 -5 32 14 26
37 -9 33 -15 -2 -27 1 -27 7 0 6 14 11 30 11 26 0 30 4 30 26 0 39 -18 64 -46
64 -19 0 -28 -8 -40 -35z m56 -16 c0 -5 -7 -9 -15 -9 -15 0 -20 12 -9 23 8 8
24 -1 24 -14z"/>
<path d="M3660 5523 c0 -10 7 -43 15 -73 13 -48 13 -56 -1 -71 -17 -19 -11
-39 11 -39 18 0 65 131 65 183 0 36 -28 16 -36 -25 l-8 -43 -9 43 c-10 41 -37
60 -37 25z"/>
<path d="M3800 5439 c0 -81 3 -99 15 -99 10 0 15 10 15 29 0 23 4 28 18 24 24
-6 42 16 49 61 8 51 -16 84 -62 84 l-35 0 0 -99z m65 42 c7 -24 -4 -51 -21
-51 -9 0 -14 12 -14 35 0 38 24 50 35 16z"/>
<path d="M3917 5534 c-4 -4 -7 -36 -7 -71 0 -57 2 -63 20 -63 19 0 21 5 18 67
-3 61 -14 84 -31 67z"/>
<path d="M4033 5528 c-27 -34 -21 -110 10 -130 53 -34 102 62 61 120 -17 24
-56 29 -71 10z m47 -38 c13 -25 4 -60 -16 -60 -14 0 -21 60 -7 73 9 10 11 9
23 -13z"/>
</g>
</svg>
